<?xml version="1.0" standalone="no"?>
<!DOCTYPE svg PUBLIC "-//W3C//DTD SVG 20010904//EN"
 "http://www.w3.org/TR/2001/REC-SVG-20010904/DTD/svg10.dtd">
<svg version="1.0" xmlns="http://www.w3.org/2000/svg"
 width="556.000000pt" height="556.000000pt" viewBox="0 0 556.000000 556.000000"
 preserveAspectRatio="xMidYMid meet">
<metadata>
Created by potrace 1.14, written by Peter Selinger 2001-2017
</metadata>
<g transform="translate(0.000000,556.000000) scale(0.100000,-0.100000)"
fill="#000000" stroke="none">
<path d="M2390 5049 c-63 -7 -147 -22 -257 -43 -73 -15 -231 -63 -332 -102
-359 -139 -700 -380 -932 -659 -19 -23 -46 -54 -62 -70 -15 -16 -27 -34 -27
-40 0 -6 -9 -17 -19 -25 -11 -7 -18 -17 -15 -22 3 -4 1 -8 -3 -8 -5 0 -17 -15
-28 -32 -10 -18 -21 -35 -25 -38 -3 -3 -19 -27 -35 -55 -17 -27 -35 -59 -42
-70 -16 -26 -128 -248 -128 -255 0 -3 -15 -41 -32 -85 -28 -69 -66 -190 -66
-205 0 -3 -3 -15 -8 -28 -5 -12 -11 -33 -13 -45 -2 -12 -9 -41 -15 -65 -7 -23
-14 -59 -16 -80 -2 -20 -7 -48 -10 -62 -13 -63 -20 -180 -20 -350 1 -221 6
-278 49 -496 8 -42 59 -229 64 -239 4 -5 16 -38 28 -71 34 -98 112 -264 172
-369 50 -88 182 -276 221 -316 9 -9 40 -43 68 -76 74 -85 192 -198 263 -251
19 -15 37 -29 40 -32 3 -3 21 -17 40 -30 19 -13 37 -27 40 -30 3 -3 30 -21 60
-40 30 -19 57 -37 60 -41 8 -9 234 -131 250 -134 3 0 28 -11 55 -24 171 -78
451 -154 660 -178 89 -10 451 -10 530 0 140 18 285 47 390 79 39 12 76 23 82
24 25 4 159 57 206 81 26 13 47 21 47 17 0 -3 13 4 29 15 16 12 36 21 44 21 9
0 17 3 19 8 2 4 28 20 58 36 65 34 270 168 304 199 14 12 38 32 53 44 92 73
201 180 303 299 67 78 187 246 181 253 -1 2 2 7 7 10 11 7 38 53 97 166 36 68
58 118 125 280 17 40 64 201 75 255 2 8 4 15 5 15 2 0 13 55 26 140 3 17 7 41
10 55 26 150 26 539 0 675 -2 11 -11 61 -21 110 -9 50 -23 113 -31 141 -8 28
-16 60 -19 70 -13 61 -140 383 -155 394 -4 3 -17 25 -29 50 -24 52 -34 69 -73
127 -15 23 -28 44 -28 47 0 12 -163 226 -172 226 -4 0 -8 6 -8 13 0 14 -220
232 -300 297 -30 25 -57 47 -60 50 -3 3 -12 10 -21 15 -9 6 -66 43 -125 83
-266 178 -610 309 -939 357 -22 4 -51 9 -65 12 -44 9 -453 11 -530 2z"/>
</g>
</svg>
